<svg xmlns="http://www.w3.org/2000/svg" role="img" viewBox="0 0 1350 530" width="1350" height="530">
  <title>Hush local component view</title>
  <desc>Proposed dependencies inside the local Hush application.</desc>
  <defs><marker id="arrow" viewBox="0 0 10 10" refX="9" refY="5" markerWidth="7" markerHeight="7" orient="auto-start-reverse"><path d="M 0 0 L 10 5 L 0 10 z" fill="#334155"/></marker></defs>
  <rect width="100%" height="100%" fill="#ffffff"/>
<text x="40" y="48" text-anchor="start" font-family="Arial, sans-serif" font-size="30" fill="#0f172a"><tspan x="40" dy="0">Hush local component view</tspan></text>
<line x1="235" y1="290" x2="300" y2="290" stroke="#334155" stroke-width="2"  marker-end="url(#arrow)"/>
<line x1="490" y1="290" x2="570" y2="290" stroke="#334155" stroke-width="2"  marker-end="url(#arrow)"/>
<line x1="760" y1="290" x2="850" y2="120" stroke="#334155" stroke-width="2"  marker-end="url(#arrow)"/>
<line x1="760" y1="290" x2="850" y2="230" stroke="#334155" stroke-width="2"  marker-end="url(#arrow)"/>
<line x1="760" y1="290" x2="850" y2="340" stroke="#334155" stroke-width="2"  marker-end="url(#arrow)"/>
<line x1="760" y1="290" x2="850" y2="450" stroke="#334155" stroke-width="2"  marker-end="url(#arrow)"/>
<line x1="1040" y1="120" x2="1120" y2="95" stroke="#334155" stroke-width="2"  marker-end="url(#arrow)"/>
<line x1="1040" y1="120" x2="1120" y2="185" stroke="#334155" stroke-width="2"  marker-end="url(#arrow)"/>
<line x1="1040" y1="340" x2="1120" y2="340" stroke="#334155" stroke-width="2"  marker-end="url(#arrow)"/>
<line x1="1040" y1="450" x2="1120" y2="450" stroke="#334155" stroke-width="2"  marker-end="url(#arrow)"/>
<rect x="45" y="250" width="190" height="80" rx="12" fill="#dbeafe" stroke="#1e293b" stroke-width="2"/>
<text x="140" y="296" text-anchor="middle" font-family="Arial, sans-serif" font-size="18" fill="#0f172a"><tspan x="140" dy="0">CLI and keyboard input</tspan></text>
<rect x="300" y="250" width="190" height="80" rx="12" fill="#dcfce7" stroke="#1e293b" stroke-width="2"/>
<text x="395" y="296" text-anchor="middle" font-family="Arial, sans-serif" font-size="18" fill="#0f172a"><tspan x="395" dy="0">CLI and TUI adapter</tspan></text>
<rect x="570" y="250" width="190" height="80" rx="12" fill="#fef3c7" stroke="#1e293b" stroke-width="2"/>
<text x="665" y="296" text-anchor="middle" font-family="Arial, sans-serif" font-size="18" fill="#0f172a"><tspan x="665" dy="0">Application core</tspan></text>
<rect x="850" y="80" width="190" height="80" rx="12" fill="#fce7f3" stroke="#1e293b" stroke-width="2"/>
<text x="945" y="126" text-anchor="middle" font-family="Arial, sans-serif" font-size="18" fill="#0f172a"><tspan x="945" dy="0">Vault module</tspan></text>
<rect x="850" y="190" width="190" height="80" rx="12" fill="#e0e7ff" stroke="#1e293b" stroke-width="2"/>
<text x="945" y="236" text-anchor="middle" font-family="Arial, sans-serif" font-size="18" fill="#0f172a"><tspan x="945" dy="0">Env file parser</tspan></text>
<rect x="850" y="300" width="190" height="80" rx="12" fill="#cffafe" stroke="#1e293b" stroke-width="2"/>
<text x="945" y="346" text-anchor="middle" font-family="Arial, sans-serif" font-size="18" fill="#0f172a"><tspan x="945" dy="0">Process runner</tspan></text>
<rect x="850" y="410" width="190" height="80" rx="12" fill="#dbeafe" stroke="#1e293b" stroke-width="2"/>
<text x="945" y="456" text-anchor="middle" font-family="Arial, sans-serif" font-size="18" fill="#0f172a"><tspan x="945" dy="0">Sync client</tspan></text>
<rect x="1120" y="55" width="190" height="80" rx="12" fill="#dcfce7" stroke="#1e293b" stroke-width="2"/>
<text x="1215" y="101" text-anchor="middle" font-family="Arial, sans-serif" font-size="18" fill="#0f172a"><tspan x="1215" dy="0">Vault file</tspan></text>
<rect x="1120" y="145" width="190" height="80" rx="12" fill="#fef3c7" stroke="#1e293b" stroke-width="2"/>
<text x="1215" y="191" text-anchor="middle" font-family="Arial, sans-serif" font-size="18" fill="#0f172a"><tspan x="1215" dy="0">Protected key storage</tspan></text>
<rect x="1120" y="300" width="190" height="80" rx="12" fill="#fce7f3" stroke="#1e293b" stroke-width="2"/>
<text x="1215" y="346" text-anchor="middle" font-family="Arial, sans-serif" font-size="18" fill="#0f172a"><tspan x="1215" dy="0">Child process</tspan></text>
<rect x="1120" y="410" width="190" height="80" rx="12" fill="#e0e7ff" stroke="#1e293b" stroke-width="2"/>
<text x="1215" y="456" text-anchor="middle" font-family="Arial, sans-serif" font-size="18" fill="#0f172a"><tspan x="1215" dy="0">Sync API</tspan></text>
</svg>
